# xmcd CD database file
#
# Track frame offsets:
#	183
#	12563
#	27218
#	41203
#	53620
#	67795
#	81498
#	93668
#	106978
#	119858
#	133933
#	148875
#	161570
#	174495
#	186920
#	200210
#	214058
#	225038
#	238988
#	251380
#
# Disc length: 3517 seconds
#
# Revision: 3
# Processed by: cddbd v1.5.2PL0 Copyright (c) Steve Scherf et al.
# Submitted via: CDex 1.99.1
#
DISCID=290dbb14
DTITLE=Little Walter - My Babe - 20 Blues Classics
DYEAR=1954
DGENRE=Blues
TTITLE0=My Babe
TTITLE1=Sad Hours
TTITLE2=You're So Fine
TTITLE3=Last Night
TTITLE4=Blues With A Feeling
TTITLE5=Can't Hold Out Much Longer
TTITLE6=It's Too Late Brother
TTITLE7=Mean Old World
TTITLE8=Off The Wall
TTITLE9=You Better Watch Yourself
TTITLE10=Blue Light
TTITLE11=Tell Me Mama
TTITLE12=Back Track
TTITLE13=Juke
TTITLE14=Just A Feeling
TTITLE15=Teenage Beat
TTITLE16=Just Your Fool
TTITLE17=Flying Saucer
TTITLE18=I Got To Go
TTITLE19=Shake Dancer
EXTD=YEAR: 1954
EXTT0=
EXTT1=
EXTT2=
EXTT3=
EXTT4=
EXTT5=
EXTT6=
EXTT7=
EXTT8=
EXTT9=
EXTT10=
EXTT11=
EXTT12=
EXTT13=
EXTT14=
EXTT15=
EXTT16=
EXTT17=
EXTT18=
EXTT19=
PLAYORDER=
